<mxfile host="Electron" agent="Mozilla/5.0 (Windows NT 10.0; Win64; x64) AppleWebKit/537.36 (KHTML, like Gecko) draw.io/24.7.17 Chrome/128.0.6613.36 Electron/32.0.1 Safari/537.36" version="24.7.17">
  <diagram name="Page-1" id="q9wLS8WNINNHdFdtXX9g">
    <mxGraphModel dx="1434" dy="844" grid="1" gridSize="10" guides="1" tooltips="1" connect="1" arrows="1" fold="1" page="1" pageScale="1" pageWidth="850" pageHeight="1100" math="0" shadow="0">
      <root>
        <mxCell id="0" />
        <mxCell id="1" parent="0" />
        <mxCell id="prASlaxazNQ3z7NFotfd-8" style="edgeStyle=orthogonalEdgeStyle;rounded=0;orthogonalLoop=1;jettySize=auto;html=1;exitX=0.5;exitY=1;exitDx=0;exitDy=0;entryX=0.5;entryY=0;entryDx=0;entryDy=0;" edge="1" parent="1" source="prASlaxazNQ3z7NFotfd-1" target="prASlaxazNQ3z7NFotfd-2">
          <mxGeometry relative="1" as="geometry" />
        </mxCell>
        <mxCell id="prASlaxazNQ3z7NFotfd-1" value="Start" style="ellipse;whiteSpace=wrap;html=1;" vertex="1" parent="1">
          <mxGeometry x="365" width="120" height="80" as="geometry" />
        </mxCell>
        <mxCell id="prASlaxazNQ3z7NFotfd-9" style="edgeStyle=orthogonalEdgeStyle;rounded=0;orthogonalLoop=1;jettySize=auto;html=1;exitX=0.5;exitY=1;exitDx=0;exitDy=0;entryX=0.5;entryY=0;entryDx=0;entryDy=0;" edge="1" parent="1" source="prASlaxazNQ3z7NFotfd-2" target="prASlaxazNQ3z7NFotfd-3">
          <mxGeometry relative="1" as="geometry" />
        </mxCell>
        <mxCell id="prASlaxazNQ3z7NFotfd-2" value="Input&lt;div&gt;LastName&lt;/div&gt;" style="shape=parallelogram;perimeter=parallelogramPerimeter;whiteSpace=wrap;html=1;fixedSize=1;" vertex="1" parent="1">
          <mxGeometry x="365" y="100" width="120" height="60" as="geometry" />
        </mxCell>
        <mxCell id="prASlaxazNQ3z7NFotfd-10" style="edgeStyle=orthogonalEdgeStyle;rounded=0;orthogonalLoop=1;jettySize=auto;html=1;exitX=0.5;exitY=1;exitDx=0;exitDy=0;entryX=0.5;entryY=0;entryDx=0;entryDy=0;" edge="1" parent="1" source="prASlaxazNQ3z7NFotfd-3" target="prASlaxazNQ3z7NFotfd-4">
          <mxGeometry relative="1" as="geometry" />
        </mxCell>
        <mxCell id="prASlaxazNQ3z7NFotfd-3" value="Input&lt;div&gt;Bathrooms&lt;/div&gt;" style="shape=parallelogram;perimeter=parallelogramPerimeter;whiteSpace=wrap;html=1;fixedSize=1;" vertex="1" parent="1">
          <mxGeometry x="365" y="180" width="120" height="60" as="geometry" />
        </mxCell>
        <mxCell id="prASlaxazNQ3z7NFotfd-11" style="edgeStyle=orthogonalEdgeStyle;rounded=0;orthogonalLoop=1;jettySize=auto;html=1;exitX=0.5;exitY=1;exitDx=0;exitDy=0;entryX=0.5;entryY=0;entryDx=0;entryDy=0;" edge="1" parent="1" source="prASlaxazNQ3z7NFotfd-4" target="prASlaxazNQ3z7NFotfd-5">
          <mxGeometry relative="1" as="geometry" />
        </mxCell>
        <mxCell id="prASlaxazNQ3z7NFotfd-4" value="Input&lt;div&gt;OtherRooms&lt;/div&gt;" style="shape=parallelogram;perimeter=parallelogramPerimeter;whiteSpace=wrap;html=1;fixedSize=1;" vertex="1" parent="1">
          <mxGeometry x="365" y="260" width="120" height="60" as="geometry" />
        </mxCell>
        <mxCell id="prASlaxazNQ3z7NFotfd-12" style="edgeStyle=orthogonalEdgeStyle;rounded=0;orthogonalLoop=1;jettySize=auto;html=1;exitX=0.5;exitY=1;exitDx=0;exitDy=0;entryX=0.5;entryY=0;entryDx=0;entryDy=0;" edge="1" parent="1" source="prASlaxazNQ3z7NFotfd-5" target="prASlaxazNQ3z7NFotfd-6">
          <mxGeometry relative="1" as="geometry" />
        </mxCell>
        <mxCell id="prASlaxazNQ3z7NFotfd-5" value="BathroomCost =&lt;div&gt;Bathrooms * $15&lt;/div&gt;" style="rounded=0;whiteSpace=wrap;html=1;" vertex="1" parent="1">
          <mxGeometry x="365" y="340" width="120" height="60" as="geometry" />
        </mxCell>
        <mxCell id="prASlaxazNQ3z7NFotfd-13" style="edgeStyle=orthogonalEdgeStyle;rounded=0;orthogonalLoop=1;jettySize=auto;html=1;exitX=0.5;exitY=1;exitDx=0;exitDy=0;entryX=0.5;entryY=0;entryDx=0;entryDy=0;" edge="1" parent="1" source="prASlaxazNQ3z7NFotfd-6" target="prASlaxazNQ3z7NFotfd-7">
          <mxGeometry relative="1" as="geometry" />
        </mxCell>
        <mxCell id="prASlaxazNQ3z7NFotfd-6" value="OtherRoomCost =&amp;nbsp;&lt;div&gt;OtherRooms * $10&lt;/div&gt;" style="rounded=0;whiteSpace=wrap;html=1;" vertex="1" parent="1">
          <mxGeometry x="365" y="420" width="120" height="60" as="geometry" />
        </mxCell>
        <mxCell id="prASlaxazNQ3z7NFotfd-15" style="edgeStyle=orthogonalEdgeStyle;rounded=0;orthogonalLoop=1;jettySize=auto;html=1;exitX=0.5;exitY=1;exitDx=0;exitDy=0;entryX=0.5;entryY=0;entryDx=0;entryDy=0;" edge="1" parent="1" source="prASlaxazNQ3z7NFotfd-7" target="prASlaxazNQ3z7NFotfd-14">
          <mxGeometry relative="1" as="geometry" />
        </mxCell>
        <mxCell id="prASlaxazNQ3z7NFotfd-7" value="TotalCost =&lt;div&gt;BathroomCost + OtherRoomCost + $40&lt;/div&gt;" style="rounded=0;whiteSpace=wrap;html=1;" vertex="1" parent="1">
          <mxGeometry x="365" y="500" width="120" height="60" as="geometry" />
        </mxCell>
        <mxCell id="prASlaxazNQ3z7NFotfd-20" style="edgeStyle=orthogonalEdgeStyle;rounded=0;orthogonalLoop=1;jettySize=auto;html=1;exitX=0.5;exitY=1;exitDx=0;exitDy=0;entryX=0.5;entryY=0;entryDx=0;entryDy=0;" edge="1" parent="1" source="prASlaxazNQ3z7NFotfd-14" target="prASlaxazNQ3z7NFotfd-16">
          <mxGeometry relative="1" as="geometry" />
        </mxCell>
        <mxCell id="prASlaxazNQ3z7NFotfd-14" value="Output&lt;div&gt;LastName&lt;/div&gt;" style="shape=parallelogram;perimeter=parallelogramPerimeter;whiteSpace=wrap;html=1;fixedSize=1;" vertex="1" parent="1">
          <mxGeometry x="365" y="570" width="120" height="60" as="geometry" />
        </mxCell>
        <mxCell id="prASlaxazNQ3z7NFotfd-21" style="edgeStyle=orthogonalEdgeStyle;rounded=0;orthogonalLoop=1;jettySize=auto;html=1;exitX=0.5;exitY=1;exitDx=0;exitDy=0;entryX=0.5;entryY=0;entryDx=0;entryDy=0;" edge="1" parent="1" source="prASlaxazNQ3z7NFotfd-16" target="prASlaxazNQ3z7NFotfd-17">
          <mxGeometry relative="1" as="geometry" />
        </mxCell>
        <mxCell id="prASlaxazNQ3z7NFotfd-16" value="Output&lt;div&gt;Bathrooms + BathroomCost&lt;/div&gt;" style="shape=parallelogram;perimeter=parallelogramPerimeter;whiteSpace=wrap;html=1;fixedSize=1;" vertex="1" parent="1">
          <mxGeometry x="365" y="640" width="120" height="60" as="geometry" />
        </mxCell>
        <mxCell id="prASlaxazNQ3z7NFotfd-22" style="edgeStyle=orthogonalEdgeStyle;rounded=0;orthogonalLoop=1;jettySize=auto;html=1;exitX=0.5;exitY=1;exitDx=0;exitDy=0;entryX=0.5;entryY=0;entryDx=0;entryDy=0;" edge="1" parent="1" source="prASlaxazNQ3z7NFotfd-17" target="prASlaxazNQ3z7NFotfd-18">
          <mxGeometry relative="1" as="geometry" />
        </mxCell>
        <mxCell id="prASlaxazNQ3z7NFotfd-17" value="Output&lt;div&gt;OtherRooms + OtherRoomsCost&lt;/div&gt;" style="shape=parallelogram;perimeter=parallelogramPerimeter;whiteSpace=wrap;html=1;fixedSize=1;" vertex="1" parent="1">
          <mxGeometry x="365" y="710" width="120" height="60" as="geometry" />
        </mxCell>
        <mxCell id="prASlaxazNQ3z7NFotfd-23" style="edgeStyle=orthogonalEdgeStyle;rounded=0;orthogonalLoop=1;jettySize=auto;html=1;exitX=0.5;exitY=1;exitDx=0;exitDy=0;entryX=0.5;entryY=0;entryDx=0;entryDy=0;" edge="1" parent="1" source="prASlaxazNQ3z7NFotfd-18" target="prASlaxazNQ3z7NFotfd-19">
          <mxGeometry relative="1" as="geometry" />
        </mxCell>
        <mxCell id="prASlaxazNQ3z7NFotfd-18" value="Output&lt;div&gt;TotalCost&lt;/div&gt;" style="shape=parallelogram;perimeter=parallelogramPerimeter;whiteSpace=wrap;html=1;fixedSize=1;" vertex="1" parent="1">
          <mxGeometry x="365" y="780" width="120" height="60" as="geometry" />
        </mxCell>
        <mxCell id="prASlaxazNQ3z7NFotfd-25" style="edgeStyle=orthogonalEdgeStyle;rounded=0;orthogonalLoop=1;jettySize=auto;html=1;exitX=0.5;exitY=1;exitDx=0;exitDy=0;entryX=0.5;entryY=0;entryDx=0;entryDy=0;" edge="1" parent="1" source="prASlaxazNQ3z7NFotfd-19" target="prASlaxazNQ3z7NFotfd-24">
          <mxGeometry relative="1" as="geometry" />
        </mxCell>
        <mxCell id="prASlaxazNQ3z7NFotfd-19" value="Output =&amp;nbsp;&lt;div&gt;&quot;All Details Fullfilled&quot;&lt;/div&gt;" style="shape=parallelogram;perimeter=parallelogramPerimeter;whiteSpace=wrap;html=1;fixedSize=1;" vertex="1" parent="1">
          <mxGeometry x="365" y="850" width="120" height="60" as="geometry" />
        </mxCell>
        <mxCell id="prASlaxazNQ3z7NFotfd-24" value="End" style="ellipse;whiteSpace=wrap;html=1;" vertex="1" parent="1">
          <mxGeometry x="365" y="930" width="120" height="80" as="geometry" />
        </mxCell>
      </root>
    </mxGraphModel>
  </diagram>
</mxfile>
